<mxfile host="Electron" modified="2023-12-15T03:12:31.525Z" agent="Mozilla/5.0 (Windows NT 10.0; Win64; x64) AppleWebKit/537.36 (KHTML, like Gecko) draw.io/22.1.2 Chrome/114.0.5735.289 Electron/25.9.4 Safari/537.36" etag="-aWx3g6dU-X2wrX8GNVI" version="22.1.2" type="device">
  <diagram id="C5RBs43oDa-KdzZeNtuy" name="Page-1">
    <mxGraphModel dx="1494" dy="957" grid="1" gridSize="10" guides="1" tooltips="1" connect="1" arrows="1" fold="1" page="1" pageScale="1" pageWidth="827" pageHeight="1169" math="0" shadow="0">
      <root>
        <mxCell id="WIyWlLk6GJQsqaUBKTNV-0" />
        <mxCell id="WIyWlLk6GJQsqaUBKTNV-1" parent="WIyWlLk6GJQsqaUBKTNV-0" />
        <mxCell id="WHLf-El1DBxyO0GfEidy-2" style="edgeStyle=orthogonalEdgeStyle;rounded=0;orthogonalLoop=1;jettySize=auto;html=1;exitX=0.5;exitY=1;exitDx=0;exitDy=0;exitPerimeter=0;entryX=0.5;entryY=0;entryDx=0;entryDy=0;" edge="1" parent="WIyWlLk6GJQsqaUBKTNV-1" source="WHLf-El1DBxyO0GfEidy-0" target="WHLf-El1DBxyO0GfEidy-1">
          <mxGeometry relative="1" as="geometry" />
        </mxCell>
        <mxCell id="WHLf-El1DBxyO0GfEidy-0" value="Start" style="strokeWidth=2;html=1;shape=mxgraph.flowchart.start_1;whiteSpace=wrap;" vertex="1" parent="WIyWlLk6GJQsqaUBKTNV-1">
          <mxGeometry x="110" y="20" width="100" height="60" as="geometry" />
        </mxCell>
        <mxCell id="WHLf-El1DBxyO0GfEidy-6" style="edgeStyle=orthogonalEdgeStyle;rounded=0;orthogonalLoop=1;jettySize=auto;html=1;exitX=0.5;exitY=1;exitDx=0;exitDy=0;entryX=0.5;entryY=0;entryDx=0;entryDy=0;" edge="1" parent="WIyWlLk6GJQsqaUBKTNV-1" source="WHLf-El1DBxyO0GfEidy-1" target="WHLf-El1DBxyO0GfEidy-3">
          <mxGeometry relative="1" as="geometry" />
        </mxCell>
        <mxCell id="WHLf-El1DBxyO0GfEidy-1" value="&lt;div&gt;Init :&lt;br&gt;int m = 2;&amp;nbsp;&lt;/div&gt;&lt;div&gt;const int c = 1;&lt;/div&gt;&lt;div&gt;float x = 1.2;&amp;nbsp;&lt;/div&gt;&lt;div&gt;double b = 0.7;&amp;nbsp;&lt;/div&gt;" style="rounded=1;whiteSpace=wrap;html=1;absoluteArcSize=1;arcSize=14;strokeWidth=2;" vertex="1" parent="WIyWlLk6GJQsqaUBKTNV-1">
          <mxGeometry x="100" y="110" width="120" height="120" as="geometry" />
        </mxCell>
        <mxCell id="WHLf-El1DBxyO0GfEidy-8" style="edgeStyle=orthogonalEdgeStyle;rounded=0;orthogonalLoop=1;jettySize=auto;html=1;exitX=0.5;exitY=1;exitDx=0;exitDy=0;entryX=0.5;entryY=0;entryDx=0;entryDy=0;" edge="1" parent="WIyWlLk6GJQsqaUBKTNV-1" source="WHLf-El1DBxyO0GfEidy-3" target="WHLf-El1DBxyO0GfEidy-7">
          <mxGeometry relative="1" as="geometry" />
        </mxCell>
        <mxCell id="WHLf-El1DBxyO0GfEidy-3" value="fi = calculate_fi(m, c, x)" style="verticalLabelPosition=middle;verticalAlign=middle;html=1;shape=process;whiteSpace=wrap;rounded=1;size=0.14;arcSize=6;labelPosition=center;align=center;" vertex="1" parent="WIyWlLk6GJQsqaUBKTNV-1">
          <mxGeometry x="70" y="260" width="180" height="60" as="geometry" />
        </mxCell>
        <mxCell id="WHLf-El1DBxyO0GfEidy-10" style="edgeStyle=orthogonalEdgeStyle;rounded=0;orthogonalLoop=1;jettySize=auto;html=1;exitX=0.5;exitY=1;exitDx=0;exitDy=0;entryX=0.5;entryY=0;entryDx=0;entryDy=0;" edge="1" parent="WIyWlLk6GJQsqaUBKTNV-1" source="WHLf-El1DBxyO0GfEidy-7" target="WHLf-El1DBxyO0GfEidy-9">
          <mxGeometry relative="1" as="geometry" />
        </mxCell>
        <mxCell id="WHLf-El1DBxyO0GfEidy-7" value="ksi = calculate_ksi(m, c, x, b)" style="verticalLabelPosition=middle;verticalAlign=middle;html=1;shape=process;whiteSpace=wrap;rounded=1;size=0.14;arcSize=6;labelPosition=center;align=center;" vertex="1" parent="WIyWlLk6GJQsqaUBKTNV-1">
          <mxGeometry x="45" y="350" width="230" height="60" as="geometry" />
        </mxCell>
        <mxCell id="WHLf-El1DBxyO0GfEidy-9" value="Output:&lt;br&gt;&lt;div&gt;fi&amp;nbsp;&lt;/div&gt;&lt;div&gt;ksi&lt;/div&gt;" style="shape=parallelogram;html=1;strokeWidth=2;perimeter=parallelogramPerimeter;whiteSpace=wrap;rounded=1;arcSize=12;size=0.23;" vertex="1" parent="WIyWlLk6GJQsqaUBKTNV-1">
          <mxGeometry x="85" y="440" width="150" height="80" as="geometry" />
        </mxCell>
        <mxCell id="WHLf-El1DBxyO0GfEidy-17" style="edgeStyle=orthogonalEdgeStyle;rounded=0;orthogonalLoop=1;jettySize=auto;html=1;exitX=0.5;exitY=1;exitDx=0;exitDy=0;exitPerimeter=0;entryX=0.5;entryY=0;entryDx=0;entryDy=0;" edge="1" parent="WIyWlLk6GJQsqaUBKTNV-1" source="WHLf-El1DBxyO0GfEidy-11" target="WHLf-El1DBxyO0GfEidy-16">
          <mxGeometry relative="1" as="geometry" />
        </mxCell>
        <mxCell id="WHLf-El1DBxyO0GfEidy-11" value="double calculate_fi(double m, double c, double x)" style="strokeWidth=2;html=1;shape=mxgraph.flowchart.start_1;whiteSpace=wrap;" vertex="1" parent="WIyWlLk6GJQsqaUBKTNV-1">
          <mxGeometry x="370" y="20" width="290" height="80" as="geometry" />
        </mxCell>
        <mxCell id="WHLf-El1DBxyO0GfEidy-14" value="End" style="strokeWidth=2;html=1;shape=mxgraph.flowchart.terminator;whiteSpace=wrap;" vertex="1" parent="WIyWlLk6GJQsqaUBKTNV-1">
          <mxGeometry x="110" y="555" width="100" height="60" as="geometry" />
        </mxCell>
        <mxCell id="WHLf-El1DBxyO0GfEidy-15" style="edgeStyle=orthogonalEdgeStyle;rounded=0;orthogonalLoop=1;jettySize=auto;html=1;exitX=0.5;exitY=1;exitDx=0;exitDy=0;entryX=0.5;entryY=0;entryDx=0;entryDy=0;entryPerimeter=0;" edge="1" parent="WIyWlLk6GJQsqaUBKTNV-1" source="WHLf-El1DBxyO0GfEidy-9" target="WHLf-El1DBxyO0GfEidy-14">
          <mxGeometry relative="1" as="geometry" />
        </mxCell>
        <mxCell id="WHLf-El1DBxyO0GfEidy-16" value="return sqrt(m * tan(x) + fabs(c * sin(x)))" style="rounded=1;whiteSpace=wrap;html=1;absoluteArcSize=1;arcSize=14;strokeWidth=2;" vertex="1" parent="WIyWlLk6GJQsqaUBKTNV-1">
          <mxGeometry x="372.5" y="150" width="285" height="100" as="geometry" />
        </mxCell>
        <mxCell id="WHLf-El1DBxyO0GfEidy-20" value="End" style="strokeWidth=2;html=1;shape=mxgraph.flowchart.terminator;whiteSpace=wrap;" vertex="1" parent="WIyWlLk6GJQsqaUBKTNV-1">
          <mxGeometry x="465" y="300" width="100" height="60" as="geometry" />
        </mxCell>
        <mxCell id="WHLf-El1DBxyO0GfEidy-21" style="edgeStyle=orthogonalEdgeStyle;rounded=0;orthogonalLoop=1;jettySize=auto;html=1;exitX=0.5;exitY=1;exitDx=0;exitDy=0;entryX=0.5;entryY=0;entryDx=0;entryDy=0;entryPerimeter=0;" edge="1" parent="WIyWlLk6GJQsqaUBKTNV-1" source="WHLf-El1DBxyO0GfEidy-16" target="WHLf-El1DBxyO0GfEidy-20">
          <mxGeometry relative="1" as="geometry" />
        </mxCell>
        <mxCell id="WHLf-El1DBxyO0GfEidy-22" style="edgeStyle=orthogonalEdgeStyle;rounded=0;orthogonalLoop=1;jettySize=auto;html=1;exitX=0.5;exitY=1;exitDx=0;exitDy=0;exitPerimeter=0;entryX=0.5;entryY=0;entryDx=0;entryDy=0;" edge="1" parent="WIyWlLk6GJQsqaUBKTNV-1" source="WHLf-El1DBxyO0GfEidy-23" target="WHLf-El1DBxyO0GfEidy-24">
          <mxGeometry relative="1" as="geometry" />
        </mxCell>
        <mxCell id="WHLf-El1DBxyO0GfEidy-23" value="double calculate_ksi(double m, double c, double x, double b)" style="strokeWidth=2;html=1;shape=mxgraph.flowchart.start_1;whiteSpace=wrap;" vertex="1" parent="WIyWlLk6GJQsqaUBKTNV-1">
          <mxGeometry x="720" y="20" width="340" height="80" as="geometry" />
        </mxCell>
        <mxCell id="WHLf-El1DBxyO0GfEidy-24" value="return m * cos(b * x + sin(x)) + pow(c, 3)" style="rounded=1;whiteSpace=wrap;html=1;absoluteArcSize=1;arcSize=14;strokeWidth=2;" vertex="1" parent="WIyWlLk6GJQsqaUBKTNV-1">
          <mxGeometry x="747.5" y="150" width="285" height="100" as="geometry" />
        </mxCell>
        <mxCell id="WHLf-El1DBxyO0GfEidy-25" value="End" style="strokeWidth=2;html=1;shape=mxgraph.flowchart.terminator;whiteSpace=wrap;" vertex="1" parent="WIyWlLk6GJQsqaUBKTNV-1">
          <mxGeometry x="840" y="300" width="100" height="60" as="geometry" />
        </mxCell>
        <mxCell id="WHLf-El1DBxyO0GfEidy-26" style="edgeStyle=orthogonalEdgeStyle;rounded=0;orthogonalLoop=1;jettySize=auto;html=1;exitX=0.5;exitY=1;exitDx=0;exitDy=0;entryX=0.5;entryY=0;entryDx=0;entryDy=0;entryPerimeter=0;" edge="1" parent="WIyWlLk6GJQsqaUBKTNV-1" source="WHLf-El1DBxyO0GfEidy-24" target="WHLf-El1DBxyO0GfEidy-25">
          <mxGeometry relative="1" as="geometry" />
        </mxCell>
      </root>
    </mxGraphModel>
  </diagram>
</mxfile>
